<svg id="Capa_1" data-name="Capa 1" xmlns="http://www.w3.org/2000/svg" width="120.1" height="65" viewBox="0 0 120.1 53.511"><defs><style>.cls-1{fill:#3289ca;}.cls-2{fill:gray;}.cls-3{fill:none;stroke:gray;stroke-linecap:round;stroke-miterlimit:10;stroke-width:0.1px;}</style></defs><g id="Store"><path class="cls-1" d="M52.133,10.471V11h1.3l.527,1.608c.672,2.109,1.437,4.3,1.608,4.613.119.225.316.238,3.177.211l3.044-.039.172-.5.171-.488H56.351l-.132-.342c-.29-.739-.4-.712,3.084-.712h3.216l.079-.409a1.126,1.126,0,0,0,.014-.514,27.129,27.129,0,0,0-3.493-.039l-3.427.065-.2-.474a3.718,3.718,0,0,1-.2-.541c0-.039,1.766-.065,3.941-.065h3.941l.079-.409c.04-.224.08-.461.08-.527a37.063,37.063,0,0,0-4.192-.119H54.953l-.171-.5c-.1-.263-.29-.8-.435-1.186l-.25-.686H52.133Z"/><path class="cls-1" d="M36.908,11.407a5.21,5.21,0,0,0-3.875,1.832,3.535,3.535,0,0,0-.857,2.636,2.763,2.763,0,0,0,.383,1.7c.672,1.213,1.568,1.7,4.653,2.5,1.107.29,2.135.606,2.306.685A1.215,1.215,0,0,1,39.94,22.7c-.883,1.054-4.389.843-6.314-.369-.356-.224-.685-.369-.751-.3a14.052,14.052,0,0,0-.91,2.359c0,.237,1.661.962,2.887,1.265a13.154,13.154,0,0,0,4.693.119,5.151,5.151,0,0,0,3.664-2.623,5,5,0,0,0,.1-2.953,3.9,3.9,0,0,0-1.937-1.884,18.387,18.387,0,0,0-2.623-.791c-2.057-.488-2.821-.8-3.151-1.279a1.4,1.4,0,0,1,.949-2.056,8.3,8.3,0,0,1,4.8.514c.29.145.58.224.633.158a9.5,9.5,0,0,0,.5-1.252l.422-1.16-.5-.251a8.714,8.714,0,0,0-2.821-.738c-.461-.039-1-.092-1.226-.118A13.771,13.771,0,0,0,36.908,11.407Z"/><path class="cls-1" d="M45.542,13.305v1.384H43.828v2.5h1.688l.052,3.058c.053,3.388.119,3.717.923,4.548a3.853,3.853,0,0,0,3.071,1.028c1.384,0,2.65-.317,2.518-.646-.026-.079-.211-.606-.409-1.173-.29-.844-.395-1.015-.58-.949-1.015.422-1.634.395-2.069-.079-.224-.251-.251-.554-.29-3.032l-.04-2.742,1.358-.039,1.358-.04-.027-.659c-.013-.369-.026-.909-.026-1.226l-.013-.553H48.706V11.921H45.542Z"/><path class="cls-1" d="M71.562,14.689a4.466,4.466,0,0,0-1.411.791c-.606.54-.606.54-.685.224a2.027,2.027,0,0,1-.04-.7l.04-.382H66.434L66.4,20.185l-.027,5.576H69.65l.04-3.4c.039-3.387.039-3.414.369-3.888a2.942,2.942,0,0,1,2.465-1.147h.83v-2.9l-.487.013A6,6,0,0,0,71.562,14.689Z"/><path class="cls-1" d="M78.179,14.636a5.605,5.605,0,0,0-4.192,6.2,5.73,5.73,0,0,0,2.887,4.31c2.425,1.239,5.786.91,7.381-.725l.488-.5-.831-.843-.843-.844-.646.435c-1.608,1.121-3.968.844-4.864-.566a2.522,2.522,0,0,1-.382-.857c0-.251.1-.264,3.2-.224,1.753.026,3.625.039,4.165.026l.962-.026-.052-1.292a4.175,4.175,0,0,0-.462-2.135,5.071,5.071,0,0,0-2.03-2.334A6.517,6.517,0,0,0,78.179,14.636ZM80.683,17a2.457,2.457,0,0,1,1.766,1.964V19.3H79.826a16.794,16.794,0,0,1-2.689-.105c-.118-.185.29-1.108.659-1.5A2.6,2.6,0,0,1,80.683,17Z"/><path class="cls-1" d="M53.662,16.429a6.046,6.046,0,0,0-1.029,5.259,5.733,5.733,0,0,0,5.932,4.205,5.8,5.8,0,0,0,5.984-6.762,6.605,6.605,0,0,0-1.173-2.768c-.224-.2-.277-.119-.817,1.568a5.241,5.241,0,0,1-.831,1.912c-.171.092-.237.276-.237.685A3.187,3.187,0,0,1,60.2,22.782a2.24,2.24,0,0,1-1.4.448,4.44,4.44,0,0,1-1.331-.105,3.288,3.288,0,0,1-1.99-3.058,10.106,10.106,0,0,0-.659-2.294,16.432,16.432,0,0,1-.58-1.608C54.242,15.888,53.991,16.007,53.662,16.429Z"/><path class="cls-1" d="M56.443,18.221A.785.785,0,0,0,57,19.566a.756.756,0,0,0,.541-1.318A.739.739,0,0,0,56.443,18.221Z"/><path class="cls-1" d="M60.041,18.248c-.712.711.158,1.66,1.068,1.186.171-.092.25-.277.25-.58A.759.759,0,0,0,60.041,18.248Z"/></g><path id="Flecha" class="cls-2" d="M70.8.017c0,.027.42.491.932,1.05a5.963,5.963,0,0,1,.865,1.05c-.026.027-1.364-.014-2.99-.1A87.574,87.574,0,0,0,48.463,3.412C41.433,4.9,36.266,7.079,32.869,10a8.581,8.581,0,0,0-3.03,5.167c-.144,1.022-.039,2.276.184,2.276.078,0,.105-.232.052-.6-.288-1.936,1.443-4.648,4.132-6.5a26.549,26.549,0,0,1,6.2-3.04c.171-.027.813-.218,1.417-.422A75.514,75.514,0,0,1,55.388,4.121c3.791-.4,17.589-.287,17.995.136A7.51,7.51,0,0,1,72.754,5.5a4.636,4.636,0,0,0-.6,1.268,31.154,31.154,0,0,0,4.42-3.9c0-.259-.6-.6-2.82-1.623C71.508.208,70.8-.078,70.8.017Z"/><g id="Nombre"><path class="cls-2" d="M32.466,34.511a6.265,6.265,0,0,1,.546-2.387,12.723,12.723,0,0,1,1.582-2.7,14.156,14.156,0,0,1,2.3-2.457,8.384,8.384,0,0,1,2.352-1.491,2.707,2.707,0,0,1,.98-.2.892.892,0,0,1,.882.448,1.132,1.132,0,0,1,.126.56,2.921,2.921,0,0,1-.189.924,11.032,11.032,0,0,1-.595,1.344,14.806,14.806,0,0,1-.882,1.546q-.449.681-.63.736H38.92a.174.174,0,0,1-.112-.049.138.138,0,0,1-.056-.106,3.671,3.671,0,0,1,.35-.72,8.293,8.293,0,0,1,.518-.861.237.237,0,0,1,.126-.077.079.079,0,0,1,.084.05c.009.018,0,.062-.035.132a2.822,2.822,0,0,1-.175.3,5.022,5.022,0,0,0-.406.714,2.875,2.875,0,0,0,.231-.336c.145-.224.282-.448.413-.672q.42-.756.882-1.806a2.614,2.614,0,0,0,.294-1.106.847.847,0,0,0-.126-.49.774.774,0,0,0-.7-.322,2.559,2.559,0,0,0-.714.126,4.911,4.911,0,0,0-.658.294q-.407.21-.742.42a12.6,12.6,0,0,0-2.2,1.9,15.451,15.451,0,0,0-1.862,2.429A10.023,10.023,0,0,0,32.9,33.1a4.41,4.41,0,0,0-.161.7,6.3,6.3,0,0,0-.035.742c0,.2,0,.35.007.462a1.431,1.431,0,0,0,.063.35,1.732,1.732,0,0,0,1.092,1.288,1.593,1.593,0,0,0,.5.07,2.343,2.343,0,0,0,.574-.07A9.915,9.915,0,0,0,38.4,34.5q.615-.546,1.568-1.429t1.274-1.217c.121-.122.2-.182.224-.182a.12.12,0,0,1,.112.112,11.71,11.71,0,0,1-1.211,1.211q-1.212,1.142-1.925,1.757a15.113,15.113,0,0,1-1.939,1.428,5.168,5.168,0,0,1-1.589.685,2.143,2.143,0,0,1-.546.057,1.9,1.9,0,0,1-.434-.042,1.27,1.27,0,0,1-.364-.141,1.8,1.8,0,0,1-.448-.328,1.728,1.728,0,0,1-.35-.47A3.152,3.152,0,0,1,32.466,34.511Z"/><path class="cls-2" d="M44.127,31.654a.166.166,0,0,1,.014.071c.01.065-.237.332-.742.8a2.419,2.419,0,0,1-.826.6.244.244,0,0,1-.266-.077.386.386,0,0,1-.069-.316c.018-.092.069-.279.153-.559a2.9,2.9,0,0,0,.21-.658c-.009-.019-.056,0-.14.07s-.172.14-.265.224a7.877,7.877,0,0,0-.953,1.162c-.111.159-.2.275-.258.349s-.11.113-.148.113c-.056,0-.084-.009-.084-.029-.028-.027-.023-.1.014-.21s.159-.415.365-.909q.392-.952,1.14-2.352a17.541,17.541,0,0,1,1.155-1.946.542.542,0,0,1,.12-.147.222.222,0,0,1,.132-.035c.065,0,.1.061.1.182a.19.19,0,0,1-.029.119.154.154,0,0,1-.1.049q-.057,0-.126.084a2.513,2.513,0,0,0-.2.294q-.658,1.078-1.316,2.394-.28.546-.5,1.029a3.345,3.345,0,0,0-.216.539c0,.027.051-.028.153-.168a5.85,5.85,0,0,1,.554-.631,2.36,2.36,0,0,1,.468-.378.271.271,0,0,1,.14-.027.2.2,0,0,1,.183.084.166.166,0,0,1,.027.111,1.272,1.272,0,0,1-.027.183q0,.014-.2.63-.224.617-.1.616.183,0,1.176-.952c.225-.224.355-.336.392-.336A.057.057,0,0,1,44.127,31.654Z"/><path class="cls-2" d="M46.164,31.563c.07,0,.1.022.1.078a.118.118,0,0,1-.07.1c-.046.028-.182.088-.406.182a2.024,2.024,0,0,1-.644.182.265.265,0,0,1-.245-.126.778.778,0,0,1-.077-.392v-.238l-.112.126a9.142,9.142,0,0,0-.84,1.217q-.279.477-.35.477a.122.122,0,0,1-.07-.042c-.028-.019-.042-.037-.042-.057l.028-.111a3.66,3.66,0,0,1,.2-.546c.1-.243.2-.443.28-.6.056-.113.1-.194.133-.246s.068-.077.105-.077c.056-.008.089,0,.1.042l.014.057a.362.362,0,0,1-.056.14l-.042.1c0,.019.066-.065.2-.253a1.912,1.912,0,0,1,.35-.4.2.2,0,0,1,.238-.022.166.166,0,0,1,.063.12c.005.051.007.147.007.287a.621.621,0,0,0,.042.28.142.142,0,0,0,.154.056,2.1,2.1,0,0,0,.518-.182A1.726,1.726,0,0,1,46.164,31.563Z"/><path class="cls-2" d="M47.557,31.725q.015.084-.636.671a5.635,5.635,0,0,1-.848.687.753.753,0,0,1-.182.027.274.274,0,0,1-.168-.042.293.293,0,0,1-.1-.237,2.341,2.341,0,0,1,.349-.938,3.863,3.863,0,0,1,.266-.427c.057-.07.1-.106.141-.106.064,0,.1.024.1.071a.609.609,0,0,1-.14.308,4.676,4.676,0,0,0-.344.644,1.471,1.471,0,0,0-.147.462q0,.279,1.106-.77.21-.21.329-.315a.339.339,0,0,1,.176-.106A.1.1,0,0,1,47.557,31.725Zm-.9-.882a.167.167,0,0,1,.042-.084q.043-.126.126-.126a.138.138,0,0,1,.1.028.055.055,0,0,1,.028.056.237.237,0,0,1-.07.139.3.3,0,0,1-.1.078.16.16,0,0,1-.1-.036A.079.079,0,0,1,46.661,30.843Z"/><path class="cls-2" d="M49.244,31.8c-.1.056-.222.121-.371.2-.457.242-.733.392-.826.447l-.28.183v.168a.866.866,0,0,1-.294.615,1.616,1.616,0,0,1-.364.239,1.433,1.433,0,0,1-.378.14l-.1.014a.2.2,0,0,1-.126-.07.193.193,0,0,1-.07-.112c0-.075.077-.2.231-.371a3.844,3.844,0,0,1,.567-.512l.252-.181a.8.8,0,0,0-.07-.252.965.965,0,0,1-.1-.406.531.531,0,0,1,.112-.33,1.191,1.191,0,0,1,.364-.287,1.131,1.131,0,0,1,.238-.084.137.137,0,0,1,.154.155.2.2,0,0,1-.07.174c-.047.034-.093.022-.14-.035a.045.045,0,0,0-.042-.027.129.129,0,0,0-.056.014.838.838,0,0,0-.259.216.411.411,0,0,0-.1.246,1.346,1.346,0,0,0,.077.266c.042.112.072.173.091.182a.329.329,0,0,0,.1-.035,1.823,1.823,0,0,0,.189-.1q.363-.21.847-.462a3.735,3.735,0,0,1,.525-.253.107.107,0,0,1,.091.05.074.074,0,0,1,.007.091C49.41,31.7,49.342,31.739,49.244,31.8Zm-2.5,1.778a.474.474,0,0,0,.21-.084,1,1,0,0,0,.588-.589c.019-.074.023-.111.014-.111-.019-.018-.159.086-.42.315a2.881,2.881,0,0,0-.448.441C46.661,33.592,46.68,33.6,46.745,33.573Z"/><path class="cls-2" d="M51.253,28.841a.662.662,0,0,1-.084-.007c-.037,0-.091.049-.161.162s-.17.27-.3.475l-.182.294.294-.014.2-.014q.113,0,.126.042a.083.083,0,0,1,.042.07.093.093,0,0,1-.028.07.762.762,0,0,1-.168.014,1.871,1.871,0,0,0-.224.014l-.35.014-.182.322q-1.4,2.491-1.218,2.743.042.085.329-.1a11.7,11.7,0,0,0,.945-.749,6.475,6.475,0,0,1,.728-.588q.055,0,.084.069a.059.059,0,0,1,0,.077c-.019.024-.084.087-.2.19s-.266.238-.462.406q-.546.477-.749.623a2.33,2.33,0,0,1-.385.231.664.664,0,0,1-.28.1.422.422,0,0,1-.112-.027q-.126-.042-.126-.294A1.845,1.845,0,0,1,48.9,32.4q.084-.237.378-.846t.546-1.043a3.38,3.38,0,0,0,.28-.5c.019-.018-.01-.028-.084-.028-.2,0-.362,0-.469.007s-.189.008-.245.008a.472.472,0,0,1-.133-.015.056.056,0,0,1-.049-.056c0-.046.032-.079.1-.1a1.783,1.783,0,0,1,.336-.042c.215,0,.368,0,.462-.014l.252-.014.154-.266c.1-.177.245-.4.427-.672s.32-.466.413-.588a.307.307,0,0,1,.14-.105.1.1,0,0,1,.112.035.216.216,0,0,1,.028.084,1.113,1.113,0,0,1-.14.378C51.342,28.767,51.29,28.841,51.253,28.841Z"/><path class="cls-2" d="M52.373,31.725q.015.084-.636.671a5.688,5.688,0,0,1-.848.687.753.753,0,0,1-.182.027.274.274,0,0,1-.168-.042.293.293,0,0,1-.1-.237,2.341,2.341,0,0,1,.349-.938,3.863,3.863,0,0,1,.266-.427c.056-.07.1-.106.14-.106.065,0,.1.024.1.071a.6.6,0,0,1-.141.308,4.781,4.781,0,0,0-.343.644,1.471,1.471,0,0,0-.147.462q0,.279,1.106-.77.21-.21.329-.315a.339.339,0,0,1,.176-.106A.1.1,0,0,1,52.373,31.725Zm-.9-.882a.167.167,0,0,1,.042-.084q.044-.126.126-.126a.138.138,0,0,1,.1.028.055.055,0,0,1,.028.056.237.237,0,0,1-.07.139.314.314,0,0,1-.1.078.16.16,0,0,1-.1-.036A.079.079,0,0,1,51.477,30.843Z"/><path class="cls-2" d="M54.494,31.6a.131.131,0,0,1,.035.084,3.782,3.782,0,0,1-.385.448q-.386.42-.595.616a.813.813,0,0,1-.518.294c-.131,0-.21-.089-.238-.267v-.069a1.189,1.189,0,0,1,.014-.21.557.557,0,0,0,.014-.2l-.35.307c-.112.1-.2.185-.28.246s-.126.105-.154.132a.36.36,0,0,1-.168.042.277.277,0,0,1-.2-.055.267.267,0,0,1-.07-.2,1.007,1.007,0,0,1,.14-.433,3.389,3.389,0,0,1,.441-.672,1.441,1.441,0,0,1,.483-.406.65.65,0,0,1,.14-.056.213.213,0,0,1,.112,0,.352.352,0,0,1,.224.279v.071c0,.121-.033.182-.1.182-.084,0-.126-.07-.126-.211a.206.206,0,0,0-.014-.084.044.044,0,0,0-.042-.027c-.1,0-.257.116-.462.35a2.986,2.986,0,0,0-.476.713,1.111,1.111,0,0,0-.1.323c0,.047.047.033.14-.042s.28-.242.56-.5a3.784,3.784,0,0,1,.5-.434.1.1,0,0,1,.126.014c.037.037.042.1.014.2a2.668,2.668,0,0,0-.119.357,1.229,1.229,0,0,0-.049.287c0,.1.019.154.056.154s.152-.077.315-.231.371-.367.623-.637a3.588,3.588,0,0,1,.434-.406C54.449,31.557,54.47,31.57,54.494,31.6Z"/><path class="cls-2" d="M57.329,31.8c0,.056-.056.121-.168.2l-.547.405q-.39.267-.587.378a.677.677,0,0,1-.308.113.229.229,0,0,1-.168-.056.254.254,0,0,1-.056-.183,2.532,2.532,0,0,1,.112-.559l.1-.378c.009-.057.005-.084-.014-.084a1.614,1.614,0,0,0-.588.35,7.338,7.338,0,0,0-.742.686l-.5.5a.093.093,0,0,1-.07.021.255.255,0,0,1-.056-.021.083.083,0,0,1-.042-.07,1.133,1.133,0,0,1,.1-.308q.141-.307.364-.764a5.549,5.549,0,0,1,.322-.594c.056-.093.1-.14.14-.14.084,0,.126.027.126.084a.342.342,0,0,1-.056.153q-.07.1-.322.589l-.238.447.308-.293a4.918,4.918,0,0,1,1.022-.77,1.834,1.834,0,0,1,.2-.077.23.23,0,0,1,.126-.007.131.131,0,0,1,.126.126.366.366,0,0,1,.014.111,2.8,2.8,0,0,1-.126.6,1.948,1.948,0,0,0-.07.364c0,.047.014.069.042.069a.29.29,0,0,0,.112-.055c.149-.093.378-.25.687-.469s.494-.357.558-.413c.084-.065.145-.07.184-.014Z"/><path class="cls-2" d="M64.076,30.353a3.775,3.775,0,0,1,.911.112,2.4,2.4,0,0,1,1.554,1.105l.1.2v.014h.014V31.8a1.908,1.908,0,0,1,.182.524,4.378,4.378,0,0,1,.042.694v.5l.2-.028.21-.056L69.593,28.9l.966-1.932a5.247,5.247,0,0,0,.349-.784c0-.056-.139.112-.42.5a12.318,12.318,0,0,0-.881,1.33,7.222,7.222,0,0,0-.491,1.043q-.195.526-.126.595c.029.019.034.052.015.1a.068.068,0,0,1-.063.07.124.124,0,0,1-.12-.042.19.19,0,0,1-.055-.14,3.262,3.262,0,0,1,.343-1.064,10.341,10.341,0,0,1,.791-1.456q.294-.434.707-.945a3.893,3.893,0,0,1,.539-.595.234.234,0,0,1,.1-.028q.112,0,.126.084v.028a.848.848,0,0,1-.07.252q-.338.714-1.2,2.429t-1.841,3.647l-.687,1.386q.015.014,1.3-.294.853-.252,2.058-.63L71.4,32.3l.308-.574q.825-1.568,1.526-2.751t1.68-2.667l.644-.994c.056-.093.116-.14.181-.14.057.019.084.07.084.154a.15.15,0,0,1-.069.14,8.518,8.518,0,0,0-.644.938q-.658,1.008-1.085,1.7t-1,1.687q-.336.559-.819,1.456a8.206,8.206,0,0,0-.469.924c.009.01.312-.089.91-.294s.952-.331,1.064-.378a.441.441,0,0,1,.182-.057c.055,0,.084.038.084.113,0,.047-.079.1-.238.161s-.532.189-1.121.385l-1.063.364-.714,1.442q-.7,1.4-1.058,2.184t-.665,1.568q-.237.63-.468,1.33a5.243,5.243,0,0,0-.231.8q0,.055.084-.015a.1.1,0,0,1,.056-.048.085.085,0,0,1,.056.006.117.117,0,0,1,.056.084.311.311,0,0,1-.112.2c-.15.131-.262.158-.336.084a.162.162,0,0,1-.028-.113,7.212,7.212,0,0,1,.5-1.763q.351-1.008.743-1.9t1.148-2.415q.671-1.331.644-1.33l-.42.126q-.785.266-1.638.511t-1.4.343l-.323.07-.336.672c-.074.139-.214.425-.419.853l-.322.659c-.177.374-.31.646-.4.819s-.152.259-.19.259c-.065,0-.1-.029-.1-.084a4.736,4.736,0,0,1,.294-.953q.462-1.314.574-1.819l.056-.252-.5.07q-.8.112-1.211.14t-1.1.028q-.714,0-1.043-.028a4.272,4.272,0,0,1-.749-.14,2.637,2.637,0,0,1-1.078-.511.987.987,0,0,1-.378-.763,1.31,1.31,0,0,1,.3-.791,3.038,3.038,0,0,1,.8-.722l.462-.252A4.4,4.4,0,0,1,64.076,30.353ZM60.829,32.9a1.482,1.482,0,0,0,.777.61,4.49,4.49,0,0,0,1.435.3c.168.009.382.014.644.014q.433,0,.728-.014.546-.029,1.365-.126a4.491,4.491,0,0,0,.861-.14,1.15,1.15,0,0,0,.042-.357,5.34,5.34,0,0,0,0-.54,2.162,2.162,0,0,0-1.2-1.792,3.116,3.116,0,0,0-1.359-.307,4.075,4.075,0,0,0-.909.112,4.632,4.632,0,0,0-1.449.6,2.281,2.281,0,0,0-.889.9,1.343,1.343,0,0,0-.092.217.849.849,0,0,0-.02.2A.6.6,0,0,0,60.829,32.9Zm5.866,1.75.182-.378q.14-.279.2-.419c.038-.093.038-.145,0-.154l-.126.028-.111.014-.056.238c-.075.335-.173.691-.294,1.064C66.466,35.108,66.536,34.978,66.695,34.65Z"/><path class="cls-2" d="M74.143,32.88a1.129,1.129,0,0,1-.56.23.39.39,0,0,1-.182-.042.382.382,0,0,1-.162-.139.451.451,0,0,1-.048-.224,1.332,1.332,0,0,1,.189-.616,2.685,2.685,0,0,1,.469-.63,1.76,1.76,0,0,1,.28-.2.526.526,0,0,1,.238-.091.167.167,0,0,1,.119.077.235.235,0,0,1,.063.147.873.873,0,0,1-.231.462,1.175,1.175,0,0,1-.4.364.187.187,0,0,1-.084.014.322.322,0,0,1-.126-.042l-.112-.056-.084.2a1.291,1.291,0,0,0-.1.315c-.018.107-.014.174.014.2.01.028.065.042.168.042a.982.982,0,0,0,.455-.2q.3-.194,1-.755a3.061,3.061,0,0,1,.434-.294c.065-.029.1,0,.112.07,0,.028-.026.065-.077.112s-.133.116-.245.21Q74.493,32.648,74.143,32.88Zm-.322-.875a.314.314,0,0,0,.167-.1,1.383,1.383,0,0,0,.218-.253.555.555,0,0,0,.118-.223.033.033,0,0,0-.006-.021s-.012,0-.021.007c-.047,0-.149.069-.309.21a1.709,1.709,0,0,0-.2.23q-.049.078-.021.12Z"/><path class="cls-2" d="M77.566,31.563c.07,0,.1.022.1.078a.119.119,0,0,1-.069.1c-.047.028-.183.088-.406.182a2.031,2.031,0,0,1-.644.182.265.265,0,0,1-.245-.126.767.767,0,0,1-.077-.392v-.238l-.113.126a9.07,9.07,0,0,0-.839,1.217c-.187.318-.3.477-.35.477a.119.119,0,0,1-.07-.042c-.029-.019-.042-.037-.042-.057l.028-.111a3.628,3.628,0,0,1,.195-.546c.1-.243.2-.443.281-.6.055-.113.1-.194.132-.246s.068-.077.106-.077c.056-.008.088,0,.1.042l.014.057a.355.355,0,0,1-.055.14l-.042.1c0,.019.065-.065.2-.253a1.916,1.916,0,0,1,.349-.4.2.2,0,0,1,.239-.022.165.165,0,0,1,.062.12c0,.051.008.147.008.287a.621.621,0,0,0,.042.28.14.14,0,0,0,.153.056,2.082,2.082,0,0,0,.519-.182A1.7,1.7,0,0,1,77.566,31.563Z"/><path class="cls-2" d="M79.722,31.563c.07,0,.1.022.1.078a.119.119,0,0,1-.069.1c-.047.028-.183.088-.406.182a2.031,2.031,0,0,1-.644.182.265.265,0,0,1-.245-.126.767.767,0,0,1-.077-.392v-.238l-.112.126a9.044,9.044,0,0,0-.84,1.217c-.187.318-.3.477-.35.477a.122.122,0,0,1-.07-.042c-.028-.019-.042-.037-.042-.057L77,32.957a3.66,3.66,0,0,1,.2-.546c.1-.243.2-.443.28-.6a2.621,2.621,0,0,1,.133-.246c.033-.05.067-.077.1-.077.056-.008.088,0,.1.042l.013.057a.355.355,0,0,1-.055.14l-.042.1c0,.019.065-.065.2-.253a1.912,1.912,0,0,1,.35-.4.2.2,0,0,1,.238-.022.162.162,0,0,1,.062.12c.005.051.008.147.008.287a.621.621,0,0,0,.042.28.142.142,0,0,0,.154.056,2.1,2.1,0,0,0,.518-.182A1.713,1.713,0,0,1,79.722,31.563Z"/><path class="cls-2" d="M80.078,32.88a1.126,1.126,0,0,1-.559.23.394.394,0,0,1-.183-.042.379.379,0,0,1-.161-.139.451.451,0,0,1-.049-.224,1.335,1.335,0,0,1,.19-.616,2.709,2.709,0,0,1,.468-.63,1.724,1.724,0,0,1,.281-.2.519.519,0,0,1,.238-.091.165.165,0,0,1,.118.077.237.237,0,0,1,.064.147.876.876,0,0,1-.232.462,1.165,1.165,0,0,1-.4.364.19.19,0,0,1-.084.014.313.313,0,0,1-.126-.042l-.113-.056-.084.2a1.288,1.288,0,0,0-.1.315c-.019.107-.015.174.013.2q.015.042.168.042a.985.985,0,0,0,.456-.2q.3-.194,1-.755a3.123,3.123,0,0,1,.434-.294c.066-.029.1,0,.112.07,0,.028-.025.065-.077.112s-.133.116-.245.21Q80.429,32.648,80.078,32.88Zm-.322-.875a.316.316,0,0,0,.168-.1,1.423,1.423,0,0,0,.218-.253.555.555,0,0,0,.118-.223.028.028,0,0,0-.007-.021s-.012,0-.02.007c-.047,0-.15.069-.309.21a1.572,1.572,0,0,0-.2.23c-.033.052-.04.092-.022.12Z"/><path class="cls-2" d="M83.5,31.563c.07,0,.1.022.1.078a.12.12,0,0,1-.07.1c-.047.028-.182.088-.406.182a2.034,2.034,0,0,1-.643.182.266.266,0,0,1-.246-.126.778.778,0,0,1-.077-.392v-.238l-.112.126a9.142,9.142,0,0,0-.84,1.217c-.186.318-.3.477-.349.477a.124.124,0,0,1-.071-.042c-.028-.019-.042-.037-.042-.057l.029-.111a3.517,3.517,0,0,1,.2-.546c.1-.243.2-.443.28-.6.056-.113.1-.194.133-.246s.067-.077.105-.077c.056-.008.088,0,.1.042l.014.057a.362.362,0,0,1-.056.14l-.042.1c0,.019.065-.065.2-.253a1.942,1.942,0,0,1,.35-.4.2.2,0,0,1,.238-.022.166.166,0,0,1,.063.12c.005.051.008.147.008.287a.607.607,0,0,0,.042.28.14.14,0,0,0,.153.056,2.1,2.1,0,0,0,.518-.182A1.713,1.713,0,0,1,83.5,31.563Z"/><path class="cls-2" d="M85.672,31.6a.131.131,0,0,1,.035.084,3.867,3.867,0,0,1-.386.448c-.256.28-.455.485-.594.616a.815.815,0,0,1-.518.294c-.131,0-.21-.089-.238-.267v-.069a1.189,1.189,0,0,1,.014-.21A.557.557,0,0,0,84,32.3l-.35.307c-.113.1-.2.185-.281.246s-.126.105-.153.132a.363.363,0,0,1-.168.042.273.273,0,0,1-.2-.055.267.267,0,0,1-.071-.2,1,1,0,0,1,.141-.433,3.389,3.389,0,0,1,.441-.672,1.431,1.431,0,0,1,.483-.406.631.631,0,0,1,.14-.056.213.213,0,0,1,.112,0,.352.352,0,0,1,.224.279v.071c0,.121-.033.182-.1.182-.084,0-.126-.07-.126-.211a.206.206,0,0,0-.014-.084.045.045,0,0,0-.042-.027c-.1,0-.257.116-.463.35a2.981,2.981,0,0,0-.475.713,1.079,1.079,0,0,0-.1.323c0,.047.047.033.14-.042s.28-.242.559-.5a3.827,3.827,0,0,1,.505-.434.1.1,0,0,1,.126.014c.037.037.042.1.014.2a2.533,2.533,0,0,0-.119.357,1.178,1.178,0,0,0-.049.287c0,.1.018.154.056.154s.151-.077.315-.231.371-.367.623-.637a3.588,3.588,0,0,1,.434-.406A.09.09,0,0,1,85.672,31.6Z"/></g><path class="cls-2" d="M31.574,42.072a1.86,1.86,0,0,1,1.232.337,1.2,1.2,0,0,1,.388.956,1.583,1.583,0,0,1-.089.531,1.137,1.137,0,0,1-.29.445,1.433,1.433,0,0,1-.529.3,2.524,2.524,0,0,1-.8.111h-.5v1.671h-.611V42.072Zm-.047.513h-.542v1.656h.431a2.017,2.017,0,0,0,.634-.085.737.737,0,0,0,.388-.272.85.85,0,0,0,.131-.495.724.724,0,0,0-.253-.605A1.272,1.272,0,0,0,31.527,42.585Z"/><path class="cls-2" d="M35.589,43.085a1.922,1.922,0,0,1,.193.011c.07.007.129.015.179.025l-.062.557a1.432,1.432,0,0,0-.166-.03,1.575,1.575,0,0,0-.174-.012.933.933,0,0,0-.363.072.875.875,0,0,0-.3.207.937.937,0,0,0-.205.33,1.232,1.232,0,0,0-.075.445v1.737h-.6V43.145h.483l.071.592h.027a1.592,1.592,0,0,1,.246-.327,1.1,1.1,0,0,1,.334-.237A.972.972,0,0,1,35.589,43.085Z"/><path class="cls-2" d="M39.44,44.78a2.29,2.29,0,0,1-.106.722,1.461,1.461,0,0,1-.307.536,1.326,1.326,0,0,1-.484.334,1.7,1.7,0,0,1-.64.114,1.6,1.6,0,0,1-.612-.114,1.349,1.349,0,0,1-.481-.334A1.5,1.5,0,0,1,36.5,45.5a2.2,2.2,0,0,1-.11-.722,2.089,2.089,0,0,1,.184-.919,1.315,1.315,0,0,1,.529-.578,1.618,1.618,0,0,1,.821-.2,1.542,1.542,0,0,1,.8.2,1.356,1.356,0,0,1,.533.577A2.025,2.025,0,0,1,39.44,44.78Zm-2.44,0a1.941,1.941,0,0,0,.1.651.855.855,0,0,0,.3.418.99.99,0,0,0,1.035,0,.843.843,0,0,0,.3-.418,2,2,0,0,0,.095-.651,1.933,1.933,0,0,0-.095-.643.828.828,0,0,0-.3-.411.874.874,0,0,0-.522-.143.785.785,0,0,0-.69.313A1.532,1.532,0,0,0,37,44.78Z"/><path class="cls-2" d="M39.764,43.145h.646l.7,1.891c.036.1.069.193.1.284s.057.182.08.269.041.171.055.254h.021q.036-.152.1-.369c.043-.145.091-.292.143-.441l.667-1.888h.643L41.5,46.892a2.188,2.188,0,0,1-.281.537,1.156,1.156,0,0,1-.392.345,1.128,1.128,0,0,1-.536.121,1.713,1.713,0,0,1-.252-.016c-.072-.011-.134-.024-.186-.037v-.477q.066.015.159.027a1.768,1.768,0,0,0,.2.011.679.679,0,0,0,.323-.072.7.7,0,0,0,.232-.207,1.264,1.264,0,0,0,.162-.313l.149-.387Z"/><path class="cls-2" d="M44.714,43.085a1.4,1.4,0,0,1,.735.184,1.2,1.2,0,0,1,.471.516,1.771,1.771,0,0,1,.164.786v.34H43.856a1.174,1.174,0,0,0,.271.809.958.958,0,0,0,.736.281,2.348,2.348,0,0,0,.557-.06,3.08,3.08,0,0,0,.506-.175v.5a2.391,2.391,0,0,1-.5.166,2.994,2.994,0,0,1-.594.051A1.753,1.753,0,0,1,44,46.3a1.331,1.331,0,0,1-.559-.565,1.936,1.936,0,0,1-.2-.921,2.148,2.148,0,0,1,.182-.928,1.357,1.357,0,0,1,.512-.591A1.431,1.431,0,0,1,44.714,43.085Zm0,.465a.763.763,0,0,0-.584.236,1.109,1.109,0,0,0-.259.678h1.614a1.318,1.318,0,0,0-.086-.477.692.692,0,0,0-.252-.321A.748.748,0,0,0,44.711,43.55Z"/><path class="cls-2" d="M48.216,46.486a1.653,1.653,0,0,1-.792-.181,1.23,1.23,0,0,1-.526-.556,2.493,2.493,0,0,1,.013-1.921,1.287,1.287,0,0,1,.553-.561,1.744,1.744,0,0,1,.809-.182,2.3,2.3,0,0,1,.5.054,1.815,1.815,0,0,1,.391.133l-.178.487a3.085,3.085,0,0,0-.359-.116,1.388,1.388,0,0,0-.365-.051.923.923,0,0,0-.523.138.831.831,0,0,0-.311.407,1.814,1.814,0,0,0-.1.661,1.785,1.785,0,0,0,.1.644.836.836,0,0,0,.3.4.866.866,0,0,0,.5.137,1.782,1.782,0,0,0,.476-.059,2.123,2.123,0,0,0,.39-.152V46.3a1.43,1.43,0,0,1-.381.142A2.211,2.211,0,0,1,48.216,46.486Z"/><path class="cls-2" d="M51.016,46a1.647,1.647,0,0,0,.259-.022,1.32,1.32,0,0,0,.226-.058v.458a1.2,1.2,0,0,1-.269.076,1.884,1.884,0,0,1-.345.031,1.237,1.237,0,0,1-.485-.092.724.724,0,0,1-.347-.316,1.229,1.229,0,0,1-.13-.619V43.606H49.47v-.277l.476-.22.211-.709h.37v.745h.95v.461h-.95V45.45a.577.577,0,0,0,.132.414A.475.475,0,0,0,51.016,46Z"/><path class="cls-2" d="M55.032,44.78a2.291,2.291,0,0,1-.1.722,1.447,1.447,0,0,1-.307.536,1.326,1.326,0,0,1-.484.334,1.7,1.7,0,0,1-.64.114,1.6,1.6,0,0,1-.612-.114,1.349,1.349,0,0,1-.481-.334,1.485,1.485,0,0,1-.313-.536,2.2,2.2,0,0,1-.11-.722,2.089,2.089,0,0,1,.184-.919,1.312,1.312,0,0,1,.53-.578,1.614,1.614,0,0,1,.82-.2,1.542,1.542,0,0,1,.795.2,1.356,1.356,0,0,1,.533.577A2.025,2.025,0,0,1,55.032,44.78Zm-2.438,0a1.941,1.941,0,0,0,.1.651.848.848,0,0,0,.3.418.99.99,0,0,0,1.035,0,.843.843,0,0,0,.3-.418,2,2,0,0,0,.095-.651,1.933,1.933,0,0,0-.095-.643.832.832,0,0,0-.3-.411.879.879,0,0,0-.523-.143.783.783,0,0,0-.689.313A1.524,1.524,0,0,0,52.594,44.78Z"/><path class="cls-2" d="M57.52,46.427V42.072h.61v4.355Z"/><path class="cls-2" d="M60.862,43.085a1.238,1.238,0,0,1,.874.286,1.208,1.208,0,0,1,.3.917v2.139h-.593V44.369a.886.886,0,0,0-.171-.592.672.672,0,0,0-.531-.2.8.8,0,0,0-.714.3,1.558,1.558,0,0,0-.2.872v1.674h-.6V43.145H59.7l.087.461h.032a1.007,1.007,0,0,1,.266-.289,1.171,1.171,0,0,1,.359-.173A1.418,1.418,0,0,1,60.862,43.085Z"/><path class="cls-2" d="M64.183,46a1.647,1.647,0,0,0,.259-.022,1.32,1.32,0,0,0,.226-.058v.458a1.2,1.2,0,0,1-.269.076,1.884,1.884,0,0,1-.345.031,1.237,1.237,0,0,1-.485-.092.72.72,0,0,1-.347-.316,1.24,1.24,0,0,1-.13-.619V43.606h-.455v-.277l.476-.22.211-.709h.37v.745h.95v.461h-.95V45.45a.577.577,0,0,0,.132.414A.475.475,0,0,0,64.183,46Z"/><path class="cls-2" d="M66.618,43.085a1.4,1.4,0,0,1,.736.184,1.2,1.2,0,0,1,.47.516,1.757,1.757,0,0,1,.164.786v.34H65.761a1.179,1.179,0,0,0,.27.809.958.958,0,0,0,.736.281,2.342,2.342,0,0,0,.557-.06,3.08,3.08,0,0,0,.506-.175v.5a2.391,2.391,0,0,1-.5.166,2.987,2.987,0,0,1-.594.051,1.758,1.758,0,0,1-.835-.19,1.334,1.334,0,0,1-.558-.565,1.936,1.936,0,0,1-.2-.921,2.163,2.163,0,0,1,.181-.928,1.352,1.352,0,0,1,.513-.591A1.436,1.436,0,0,1,66.618,43.085Zm0,.465a.765.765,0,0,0-.584.236,1.109,1.109,0,0,0-.258.678h1.614a1.3,1.3,0,0,0-.087-.477.709.709,0,0,0-.251-.321A.751.751,0,0,0,66.615,43.55Z"/><path class="cls-2" d="M69.731,47.892a1.773,1.773,0,0,1-1.011-.242.769.769,0,0,1-.354-.672.745.745,0,0,1,.194-.52.992.992,0,0,1,.543-.287.585.585,0,0,1-.226-.184.449.449,0,0,1-.094-.278.5.5,0,0,1,.1-.314,1.137,1.137,0,0,1,.309-.257.9.9,0,0,1-.417-.357,1.055,1.055,0,0,1-.159-.582,1.154,1.154,0,0,1,.151-.6.968.968,0,0,1,.433-.382,1.638,1.638,0,0,1,.689-.131c.059,0,.121,0,.184.008s.124.013.182.022a1.4,1.4,0,0,1,.14.03h1.131V43.5l-.583.09a.956.956,0,0,1,.14.268,1.048,1.048,0,0,1,.053.339.981.981,0,0,1-.341.79,1.4,1.4,0,0,1-.942.291,2.12,2.12,0,0,1-.284-.024.654.654,0,0,0-.193.163.324.324,0,0,0-.065.2.185.185,0,0,0,.057.141.391.391,0,0,0,.169.079,1.2,1.2,0,0,0,.268.025h.572a1.3,1.3,0,0,1,.821.226.789.789,0,0,1,.287.661.957.957,0,0,1-.453.849A2.37,2.37,0,0,1,69.731,47.892Zm.02-.438a2.257,2.257,0,0,0,.643-.077.842.842,0,0,0,.388-.221.484.484,0,0,0,.131-.339.393.393,0,0,0-.085-.273.432.432,0,0,0-.252-.126,2.159,2.159,0,0,0-.411-.033h-.542a.941.941,0,0,0-.363.065.543.543,0,0,0-.241.19.515.515,0,0,0-.086.3.418.418,0,0,0,.213.378A1.159,1.159,0,0,0,69.751,47.454Zm.132-2.588a.644.644,0,0,0,.494-.174.7.7,0,0,0,.163-.5.731.731,0,0,0-.166-.524.651.651,0,0,0-.495-.176.633.633,0,0,0-.486.181.738.738,0,0,0-.168.525.674.674,0,0,0,.169.493A.648.648,0,0,0,69.883,44.866Z"/><path class="cls-2" d="M73.724,43.085c.059,0,.124,0,.193.011s.129.015.179.025l-.063.557a1.374,1.374,0,0,0-.165-.03,1.592,1.592,0,0,0-.174-.012.942.942,0,0,0-.364.072.871.871,0,0,0-.3.207.969.969,0,0,0-.206.33,1.254,1.254,0,0,0-.074.445v1.737h-.6V43.145h.483l.071.592h.027a1.557,1.557,0,0,1,.246-.327,1.106,1.106,0,0,1,.333-.237A.977.977,0,0,1,73.724,43.085Z"/><path class="cls-2" d="M75.963,43.088a1.332,1.332,0,0,1,.909.269,1.092,1.092,0,0,1,.3.851v2.219h-.43l-.115-.477H76.6a1.7,1.7,0,0,1-.286.3,1.034,1.034,0,0,1-.344.179,1.633,1.633,0,0,1-.475.059,1.254,1.254,0,0,1-.53-.107.823.823,0,0,1-.365-.323,1.038,1.038,0,0,1-.132-.549.859.859,0,0,1,.384-.76,2.225,2.225,0,0,1,1.164-.283l.566-.024v-.184a.71.71,0,0,0-.172-.542.672.672,0,0,0-.477-.158,1.6,1.6,0,0,0-.486.073A3.539,3.539,0,0,0,75,43.8l-.19-.435a2.765,2.765,0,0,1,.529-.2A2.337,2.337,0,0,1,75.963,43.088Zm.617,1.745-.459.021a1.524,1.524,0,0,0-.8.189.55.55,0,0,0-.23.47.453.453,0,0,0,.158.383.652.652,0,0,0,.416.123.965.965,0,0,0,.657-.225.836.836,0,0,0,.258-.666Z"/><path class="cls-2" d="M79.305,46.486a1.19,1.19,0,0,1-.96-.425,2.412,2.412,0,0,1,.006-2.542,1.2,1.2,0,0,1,.97-.434,1.33,1.33,0,0,1,.443.068,1.133,1.133,0,0,1,.329.182,1.073,1.073,0,0,1,.23.257h.037c-.01-.062-.02-.149-.031-.26s-.014-.208-.014-.291V41.793h.6v4.634H80.44l-.1-.456h-.027a1.136,1.136,0,0,1-.228.26,1.026,1.026,0,0,1-.331.187A1.333,1.333,0,0,1,79.305,46.486ZM79.446,46a.791.791,0,0,0,.686-.28,1.437,1.437,0,0,0,.2-.831V44.8a1.739,1.739,0,0,0-.192-.9.76.76,0,0,0-.7-.314.7.7,0,0,0-.629.325,1.658,1.658,0,0,0-.211.905,1.545,1.545,0,0,0,.211.879A.714.714,0,0,0,79.446,46Z"/><path class="cls-2" d="M84.8,44.78a2.261,2.261,0,0,1-.106.722,1.445,1.445,0,0,1-.306.536,1.33,1.33,0,0,1-.485.334,1.693,1.693,0,0,1-.639.114,1.6,1.6,0,0,1-.613-.114,1.367,1.367,0,0,1-.481-.334,1.484,1.484,0,0,1-.312-.536,2.177,2.177,0,0,1-.111-.722,2.089,2.089,0,0,1,.185-.919,1.315,1.315,0,0,1,.529-.578,1.619,1.619,0,0,1,.82-.2,1.539,1.539,0,0,1,.795.2,1.352,1.352,0,0,1,.534.577A2.039,2.039,0,0,1,84.8,44.78Zm-2.439,0a1.966,1.966,0,0,0,.1.651.849.849,0,0,0,.3.418.988.988,0,0,0,1.034,0,.831.831,0,0,0,.3-.418,1.994,1.994,0,0,0,.1-.651,1.931,1.931,0,0,0-.1-.643.82.82,0,0,0-.3-.411.876.876,0,0,0-.522-.143.785.785,0,0,0-.69.313A1.532,1.532,0,0,0,82.364,44.78Z"/><path class="cls-2" d="M87.209,43.085c.06,0,.124,0,.194.011s.128.015.178.025l-.062.557a1.452,1.452,0,0,0-.165-.03,1.609,1.609,0,0,0-.175-.012.933.933,0,0,0-.363.072.875.875,0,0,0-.3.207.967.967,0,0,0-.2.33,1.232,1.232,0,0,0-.074.445v1.737h-.6V43.145h.483l.072.592h.026a1.629,1.629,0,0,1,.246-.327,1.106,1.106,0,0,1,.333-.237A.977.977,0,0,1,87.209,43.085Z"/><path class="cls-2" d="M47.537,52.41l.612-2.882h-.924l.042-.2h2.068l-.04.2h-.927l-.61,2.882Z"/><path class="cls-2" d="M49.787,52.452a.581.581,0,0,1-.339-.1.591.591,0,0,1-.214-.277,1.108,1.108,0,0,1-.074-.428,2.12,2.12,0,0,1,.049-.455,1.938,1.938,0,0,1,.146-.425,1.506,1.506,0,0,1,.234-.358,1.068,1.068,0,0,1,.32-.245.881.881,0,0,1,.4-.09.578.578,0,0,1,.306.077.587.587,0,0,1,.191.193.916.916,0,0,1,.1.234h.015l.122-.459h.168l-.484,2.288h-.173l.1-.535h-.011a1.679,1.679,0,0,1-.209.263,1.174,1.174,0,0,1-.291.223A.7.7,0,0,1,49.787,52.452Zm.057-.185a.631.631,0,0,0,.367-.131,1.274,1.274,0,0,0,.334-.359,1.535,1.535,0,0,0,.211-.51c.019-.085.033-.162.041-.227a1.754,1.754,0,0,0,.011-.184.652.652,0,0,0-.131-.434.437.437,0,0,0-.357-.157.687.687,0,0,0-.325.078.857.857,0,0,0-.26.215,1.289,1.289,0,0,0-.193.313,1.826,1.826,0,0,0-.121.377,1.973,1.973,0,0,0-.042.4.75.75,0,0,0,.118.452A.4.4,0,0,0,49.844,52.267Z"/><path class="cls-2" d="M51.467,52.41l.7-3.275h.213l-.7,3.275Z"/><path class="cls-2" d="M53.366,52.452a.875.875,0,0,1-.41-.095.7.7,0,0,1-.292-.288,1,1,0,0,1-.109-.491,1.847,1.847,0,0,1,.087-.57,1.611,1.611,0,0,1,.242-.479,1.216,1.216,0,0,1,.368-.331.937.937,0,0,1,.467-.121.617.617,0,0,1,.429.14.474.474,0,0,1,.155.37.588.588,0,0,1-.1.339.734.734,0,0,1-.283.236,1.641,1.641,0,0,1-.442.139,3.252,3.252,0,0,1-.575.046h-.118c0,.028-.008.063-.01.1s-.005.082-.005.121a.73.73,0,0,0,.167.515.6.6,0,0,0,.465.18,1.081,1.081,0,0,0,.325-.047A2.426,2.426,0,0,0,54,52.113v.192a1.437,1.437,0,0,1-.282.1A1.379,1.379,0,0,1,53.366,52.452Zm-.547-1.288h.141a2.589,2.589,0,0,0,.577-.058.961.961,0,0,0,.406-.182.4.4,0,0,0,.149-.322.327.327,0,0,0-.1-.244.407.407,0,0,0-.293-.095.7.7,0,0,0-.36.105,1,1,0,0,0-.318.308A1.387,1.387,0,0,0,52.819,51.164Z"/><path class="cls-2" d="M54.568,52.41l.486-2.293h.185l-.092.533h.006a1.515,1.515,0,0,1,.2-.258,1.138,1.138,0,0,1,.3-.226.791.791,0,0,1,.384-.093.706.706,0,0,1,.319.066.441.441,0,0,1,.2.191.64.64,0,0,1,.068.31,1.323,1.323,0,0,1-.011.162c-.008.055-.017.11-.028.162l-.308,1.446H56.05l.313-1.475c.012-.054.02-.1.026-.147a.9.9,0,0,0,.008-.121.386.386,0,0,0-.107-.3.438.438,0,0,0-.3-.1.72.72,0,0,0-.4.127,1.221,1.221,0,0,0-.345.361,1.608,1.608,0,0,0-.214.541l-.238,1.111Z"/><path class="cls-2" d="M57.562,52.452a.5.5,0,0,1-.341-.107.413.413,0,0,1-.122-.328,1.237,1.237,0,0,1,.008-.129,1.313,1.313,0,0,1,.026-.143l.3-1.448H57.1l.027-.125.354-.069.189-.533h.141l-.118.552h.657l-.038.175h-.656l-.306,1.441c-.009.045-.018.09-.024.133a.9.9,0,0,0-.009.122.3.3,0,0,0,.063.2.261.261,0,0,0,.21.076.818.818,0,0,0,.172-.016,1.27,1.27,0,0,0,.15-.039v.174a1.46,1.46,0,0,1-.152.044A.992.992,0,0,1,57.562,52.452Z"/><path class="cls-2" d="M59.278,52.448a.858.858,0,0,1-.447-.109.688.688,0,0,1-.273-.308,1.084,1.084,0,0,1-.091-.459,2,2,0,0,1,.054-.473,1.62,1.62,0,0,1,.155-.41,1.264,1.264,0,0,1,.247-.322,1.056,1.056,0,0,1,.326-.211,1.017,1.017,0,0,1,.392-.074.823.823,0,0,1,.441.111.717.717,0,0,1,.272.309,1.041,1.041,0,0,1,.094.456,2.035,2.035,0,0,1-.05.45,1.7,1.7,0,0,1-.146.408,1.275,1.275,0,0,1-.239.331,1.068,1.068,0,0,1-.326.221A1.026,1.026,0,0,1,59.278,52.448Zm.018-.183a.775.775,0,0,0,.313-.064.835.835,0,0,0,.259-.182,1.111,1.111,0,0,0,.2-.283,1.514,1.514,0,0,0,.123-.366,2.118,2.118,0,0,0,.042-.432.872.872,0,0,0-.063-.337.549.549,0,0,0-.193-.244.571.571,0,0,0-.334-.09.794.794,0,0,0-.313.061.851.851,0,0,0-.264.177,1.055,1.055,0,0,0-.2.278,1.455,1.455,0,0,0-.13.363,1.975,1.975,0,0,0-.045.432.755.755,0,0,0,.155.5A.565.565,0,0,0,59.3,52.265Z"/><path class="cls-2" d="M60.816,51.345l.043-.2h1l-.042.2Z"/><path class="cls-2" d="M62.726,52.41l.612-2.882h-.924l.042-.2h2.068l-.04.2h-.926l-.612,2.882Z"/><path class="cls-2" d="M65.189,52.452a.875.875,0,0,1-.41-.095.692.692,0,0,1-.292-.288.989.989,0,0,1-.109-.491,1.847,1.847,0,0,1,.087-.57,1.635,1.635,0,0,1,.242-.479,1.216,1.216,0,0,1,.368-.331.937.937,0,0,1,.467-.121.617.617,0,0,1,.429.14.474.474,0,0,1,.155.37.588.588,0,0,1-.1.339.731.731,0,0,1-.284.236,1.623,1.623,0,0,1-.441.139,3.252,3.252,0,0,1-.575.046H64.61c0,.028-.007.063-.01.1s0,.082,0,.121a.73.73,0,0,0,.167.515.6.6,0,0,0,.465.18,1.081,1.081,0,0,0,.325-.047,2.408,2.408,0,0,0,.274-.107v.192a1.4,1.4,0,0,1-.281.1A1.373,1.373,0,0,1,65.189,52.452Zm-.547-1.288h.14a2.614,2.614,0,0,0,.579-.058.962.962,0,0,0,.405-.182.4.4,0,0,0,.149-.322.33.33,0,0,0-.1-.244.411.411,0,0,0-.294-.095.71.71,0,0,0-.361.105,1.016,1.016,0,0,0-.317.308A1.387,1.387,0,0,0,64.642,51.164Z"/><path class="cls-2" d="M67.33,52.452a.888.888,0,0,1-.451-.108.726.726,0,0,1-.287-.3,1.008,1.008,0,0,1-.1-.459,2.088,2.088,0,0,1,.051-.464,1.716,1.716,0,0,1,.153-.412,1.3,1.3,0,0,1,.248-.33,1.064,1.064,0,0,1,.754-.3,1.658,1.658,0,0,1,.291.027,1.1,1.1,0,0,1,.254.079l-.06.187a1.117,1.117,0,0,0-.229-.077,1.194,1.194,0,0,0-.256-.028.824.824,0,0,0-.408.1.968.968,0,0,0-.313.283,1.357,1.357,0,0,0-.2.418,1.768,1.768,0,0,0-.07.506.851.851,0,0,0,.072.358.574.574,0,0,0,.216.246.655.655,0,0,0,.35.089,1.052,1.052,0,0,0,.286-.037,1.682,1.682,0,0,0,.266-.1v.192a1.339,1.339,0,0,1-.251.091A1.245,1.245,0,0,1,67.33,52.452Z"/><path class="cls-2" d="M68.349,52.41l.692-3.275h.213L69.069,50c-.015.072-.032.146-.049.222s-.036.15-.054.223-.036.146-.053.214h.013a1.555,1.555,0,0,1,.2-.26,1.1,1.1,0,0,1,.3-.225.8.8,0,0,1,.384-.091.7.7,0,0,1,.314.064.441.441,0,0,1,.2.19.654.654,0,0,1,.07.316,1,1,0,0,1-.012.149c-.008.053-.016.106-.028.163l-.308,1.448h-.212l.312-1.473a1.439,1.439,0,0,0,.026-.147,1.039,1.039,0,0,0,.007-.117.4.4,0,0,0-.107-.307.438.438,0,0,0-.31-.1.712.712,0,0,0-.4.13,1.183,1.183,0,0,0-.347.362,1.617,1.617,0,0,0-.217.542l-.233,1.111Z"/><line class="cls-3" x1="0.05" y1="48.219" x2="120.05" y2="48.219"/></svg>